<?xml version="1.0" encoding="utf-8"?>
<!-- Generator: Adobe Illustrator 25.3.1, SVG Export Plug-In . SVG Version: 6.00 Build 0)  -->
<svg version="1.1" id="Слой_1" xmlns="http://www.w3.org/2000/svg" xmlns:xlink="http://www.w3.org/1999/xlink" x="0px" y="0px"
	 viewBox="0 0 24 24" style="enable-background:new 0 0 24 24;" xml:space="preserve">
<g>
	<path d="M21.8,1.7H2.2c0,0,0,0,0,0C1,1.7,0,2.7,0,3.9v0v2.2l8.4,4.6c2.3,1.3,5.1,1.3,7.3,0L24,5.7V3.9C24,2.7,23,1.7,21.8,1.7z"/>
	<path d="M7.3,12.6L0,8.5v11.6c0,1.2,1,2.2,2.2,2.2h19.6c0,0,0,0,0,0c1.2,0,2.2-1,2.2-2.2V8.3l-7.3,4.2
		C13.8,14.2,10.2,14.2,7.3,12.6z"/>
</g>
</svg>
