<svg xmlns="http://www.w3.org/2000/svg" viewBox="0 0 23.99862 24"><path d="M20.114,15.56342a.56845.56845,0,0,0-.40263-.16582.55675.55675,0,0,0-.39085.16582l-1.362,1.19618a2.641,2.641,0,0,1-3.64767,0l-3.61225-3.553-3.553-3.553L7.1324,9.64043a2.57013,2.57013,0,0,1,.01323-3.63451L8.43658,4.69133,8.438,4.69a.56845.56845,0,0,0-.00137-.804L4.7652.16721,4.76375.16583A.56844.56844,0,0,0,3.9598.16721L1.91094,2.23977a6.5375,6.5375,0,0,0,0,9.23772l5.34131,5.27026,5.28212,5.34131a6.53749,6.53749,0,0,0,9.23771,0l2.04886-2.04886h.01185a.5685.5685,0,0,0,.16583-.4027.55686.55686,0,0,0-.16583-.39085Z" transform="translate(0 0)"/></svg>